<svg
      xmlns="http://www.w3.org/2000/svg"
      data-name="Layer 1"
      width="100"
      height="100"
      viewBox="0 200 500 600" 
      xmlns:xlink="http://www.w3.org/1999/xlink"
    >
      <title>empty_cart</title>
      <polygon
        points="362.06 702.184 125.274 702.184 125.274 700.481 360.356 700.481 360.356 617.861 145.18 617.861 134.727 596.084 136.263 595.347 146.252 616.157 362.06 616.157 362.06 702.184"
        fill="white"
      />
      <circle cx="156.78851" cy="726.03301" r="17.88673" fill="white" />
      <circle cx="333.10053" cy="726.03301" r="17.88673" fill="white" />
      <circle cx="540.92726" cy="346.153" r="11.07274" fill="white" />
      <path
        d="M539.38538,665.76747H273.23673L215.64844,477.531H598.69256l-.34852,1.10753Zm-264.8885-1.7035H538.136l58.23417-184.82951H217.95082Z"
        transform="translate(-152 -76.01429)"
        fill="white"
      />
      <polygon
        points="300.61 579.958 132.842 579.958 82.26 413.015 418.701 413.015 418.395 413.998 366.61 579.958"
        fill=""
      />
      <polygon
        points="451.465 384.7 449.818 384.263 461.059 341.894 526.448 341.894 526.448 343.598 462.37 343.598 451.465 384.7"
        fill="white"
      />
      <rect
        x="82.2584"
        y="458.58385"
        width="345.2931"
        height="1.7035"
        fill="white"
      />
      <rect
        x="101.45894"
        y="521.34377"
        width="306.31852"
        height="1.7035"
        fill="white"
      />
      <rect
        x="254.31376"
        y="402.36843"
        width="1.7035"
        height="186.53301"
        fill="white"
      />
      <rect
        x="385.55745"
        y="570.79732"
        width="186.92877"
        height="1.70379"
        transform="translate(-274.73922 936.23495) rotate(-86.24919)"
        fill="white"
      />
      <rect
        x="334.45728"
        y="478.18483"
        width="1.70379"
        height="186.92877"
        transform="translate(-188.46866 -52.99638) rotate(-3.729)"
        fill="white"
      />
      <rect y="745" width="500" height="2" fill="white" />
    </svg>